<svg xmlns="http://www.w3.org/2000/svg" width="1440" height="900"><path d="M836,551L780,635L798,701Z" fill="#62bcce" stroke="#62bcce" stroke-width="1.51"/><path d="M798,701L1001,803L836,551Z" fill="#57b4ce" stroke="#57b4ce" stroke-width="1.51"/><path d="M798,701L894,907L1001,803Z" fill="#4ca8c8" stroke="#4ca8c8" stroke-width="1.51"/><path d="M1058,362L916,379L836,551Z" fill="#6ec3ca" stroke="#6ec3ca" stroke-width="1.51"/><path d="M836,551L502,618L780,635Z" fill="#6ec3ca" stroke="#6ec3ca" stroke-width="1.51"/><path d="M1001,803L1187,628L836,551Z" fill="#4cb0d2" stroke="#4cb0d2" stroke-width="1.51"/><path d="M1223,692L1187,628L1201,774Z" fill="#3d9ec9" stroke="#3d9ec9" stroke-width="1.51"/><path d="M1187,628L1058,362L836,551Z" fill="#5eb9cd" stroke="#5eb9cd" stroke-width="1.51"/><path d="M1201,774L1187,628L1001,803Z" fill="#3fa0c9" stroke="#3fa0c9" stroke-width="1.51"/><path d="M1187,628L1235,562L1058,362Z" fill="#57afc8" stroke="#57afc8" stroke-width="1.51"/><path d="M1230,882L1201,774L1001,803Z" fill="#3697c4" stroke="#3697c4" stroke-width="1.51"/><path d="M1223,692L1235,562L1187,628Z" fill="#44a4ca" stroke="#44a4ca" stroke-width="1.51"/><path d="M798,701L688,959L894,907Z" fill="#53a7c3" stroke="#53a7c3" stroke-width="1.51"/><path d="M437,726L688,959L798,701Z" fill="#66b3c2" stroke="#66b3c2" stroke-width="1.51"/><path d="M780,635L502,618L798,701Z" fill="#6ac0cb" stroke="#6ac0cb" stroke-width="1.51"/><path d="M530,297L502,618L836,551Z" fill="#81ccc3" stroke="#81ccc3" stroke-width="1.51"/><path d="M916,379L756,261L836,551Z" fill="#7ac9c6" stroke="#7ac9c6" stroke-width="1.51"/><path d="M1058,362L914,243L916,379Z" fill="#7bc6c6" stroke="#7bc6c6" stroke-width="1.51"/><path d="M914,243L756,261L916,379Z" fill="#85ccc2" stroke="#85ccc2" stroke-width="1.51"/><path d="M1147,975L1230,882L1001,803Z" fill="#3391c1" stroke="#3391c1" stroke-width="1.51"/><path d="M1201,774L1424,777L1223,692Z" fill="#3494c3" stroke="#3494c3" stroke-width="1.51"/><path d="M1223,692L1452,609L1235,562Z" fill="#429ec6" stroke="#429ec6" stroke-width="1.51"/><path d="M1147,975L1001,803L894,907Z" fill="#3a99c5" stroke="#3a99c5" stroke-width="1.51"/><path d="M909,1114L1147,975L894,907Z" fill="#3891c2" stroke="#3891c2" stroke-width="1.51"/><path d="M502,618L437,726L798,701Z" fill="#74c0c6" stroke="#74c0c6" stroke-width="1.51"/><path d="M756,261L530,297L836,551Z" fill="#86d0c1" stroke="#86d0c1" stroke-width="1.51"/><path d="M215,568L264,822L437,726Z" fill="#8ac5c6" stroke="#8ac5c6" stroke-width="1.51"/><path d="M914,243L711,216L756,261Z" fill="#90d1bf" stroke="#90d1bf" stroke-width="1.51"/><path d="M688,959L909,1114L894,907Z" fill="#4a98bd" stroke="#4a98bd" stroke-width="1.51"/><path d="M437,726L552,969L688,959Z" fill="#6aacbb" stroke="#6aacbb" stroke-width="1.51"/><path d="M686,1174L909,1114L688,959Z" fill="#4e92b5" stroke="#4e92b5" stroke-width="1.51"/><path d="M711,216L530,297L756,261Z" fill="#97d6bb" stroke="#97d6bb" stroke-width="1.51"/><path d="M1457,905L1424,777L1230,882Z" fill="#2684ba" stroke="#2684ba" stroke-width="1.51"/><path d="M1230,882L1424,777L1201,774Z" fill="#2e8ec0" stroke="#2e8ec0" stroke-width="1.51"/><path d="M552,969L686,1174L688,959Z" fill="#5c9cb7" stroke="#5c9cb7" stroke-width="1.51"/><path d="M1235,562L1349,288L1058,362Z" fill="#64b1c2" stroke="#64b1c2" stroke-width="1.51"/><path d="M1058,362L1063,79L914,243Z" fill="#85c7c5" stroke="#85c7c5" stroke-width="1.51"/><path d="M1424,777L1452,609L1223,692Z" fill="#3794c3" stroke="#3794c3" stroke-width="1.51"/><path d="M1429,310L1349,288L1235,562Z" fill="#62a8bd" stroke="#62a8bd" stroke-width="1.51"/><path d="M914,243L708,-42L711,216Z" fill="#9bd6c3" stroke="#9bd6c3" stroke-width="1.51"/><path d="M1349,288L1063,79L1058,362Z" fill="#7cbcbf" stroke="#7cbcbf" stroke-width="1.51"/><path d="M552,969L499,1122L686,1174Z" fill="#6197b0" stroke="#6197b0" stroke-width="1.51"/><path d="M351,992L499,1122L552,969Z" fill="#6ea1b3" stroke="#6ea1b3" stroke-width="1.51"/><path d="M557,64L404,243L530,297Z" fill="#a9ddb9" stroke="#a9ddb9" stroke-width="1.51"/><path d="M530,297L239,509L502,618Z" fill="#92d3be" stroke="#92d3be" stroke-width="1.51"/><path d="M557,64L530,297L711,216Z" fill="#a2dabc" stroke="#a2dabc" stroke-width="1.51"/><path d="M1399,1139L1457,905L1230,882Z" fill="#1e79b5" stroke="#1e79b5" stroke-width="1.51"/><path d="M909,1114L1110,1224L1147,975Z" fill="#3081b6" stroke="#3081b6" stroke-width="1.51"/><path d="M686,1174L1110,1224L909,1114Z" fill="#3e82af" stroke="#3e82af" stroke-width="1.51"/><path d="M1424,777L1742,806L1452,609Z" fill="#2c84bb" stroke="#2c84bb" stroke-width="1.51"/><path d="M1399,1139L1230,882L1147,975Z" fill="#227eb7" stroke="#227eb7" stroke-width="1.51"/><path d="M437,726L351,992L552,969Z" fill="#75afb8" stroke="#75afb8" stroke-width="1.51"/><path d="M264,822L351,992L437,726Z" fill="#7eb6be" stroke="#7eb6be" stroke-width="1.51"/><path d="M1452,609L1429,310L1235,562Z" fill="#52a1bf" stroke="#52a1bf" stroke-width="1.51"/><path d="M1349,288L1365,121L1063,79Z" fill="#80b7be" stroke="#80b7be" stroke-width="1.51"/><path d="M215,568L437,726L502,618Z" fill="#88cac6" stroke="#88cac6" stroke-width="1.51"/><path d="M340,267L239,509L530,297Z" fill="#a3dabc" stroke="#a3dabc" stroke-width="1.51"/><path d="M404,243L340,267L530,297Z" fill="#a8ddb6" stroke="#a8ddb6" stroke-width="1.51"/><path d="M404,243L212,172L340,267Z" fill="#b3e2ba" stroke="#b3e2ba" stroke-width="1.51"/><path d="M708,-42L557,64L711,216Z" fill="#a8dcc2" stroke="#a8dcc2" stroke-width="1.51"/><path d="M239,509L215,568L502,618Z" fill="#93d0c5" stroke="#93d0c5" stroke-width="1.51"/><path d="M871,-88L708,-42L914,243Z" fill="#a1d7c9" stroke="#a1d7c9" stroke-width="1.51"/><path d="M1063,79L871,-88L914,243Z" fill="#97d0cb" stroke="#97d0cb" stroke-width="1.51"/><path d="M1459,217L1365,121L1349,288Z" fill="#77acb9" stroke="#77acb9" stroke-width="1.51"/><path d="M1110,1224L1399,1139L1147,975Z" fill="#2275ae" stroke="#2275ae" stroke-width="1.51"/><path d="M1630,407L1429,310L1452,609Z" fill="#559bb9" stroke="#559bb9" stroke-width="1.51"/><path d="M1630,407L1459,217L1429,310Z" fill="#68a0b5" stroke="#68a0b5" stroke-width="1.51"/><path d="M1429,310L1459,217L1349,288Z" fill="#70a8b7" stroke="#70a8b7" stroke-width="1.51"/><path d="M686,1174L404,1184L1110,1224Z" fill="#4e87a8" stroke="#4e87a8" stroke-width="1.51"/><path d="M499,1122L404,1184L686,1174Z" fill="#6391a7" stroke="#6391a7" stroke-width="1.51"/><path d="M351,992L404,1184L499,1122Z" fill="#6f9aac" stroke="#6f9aac" stroke-width="1.51"/><path d="M96,1183L404,1184L351,992Z" fill="#789bae" stroke="#789bae" stroke-width="1.51"/><path d="M264,822L56,934L351,992Z" fill="#84b2be" stroke="#84b2be" stroke-width="1.51"/><path d="M215,568L168,778L264,822Z" fill="#8fc6c8" stroke="#8fc6c8" stroke-width="1.51"/><path d="M1047,-118L871,-88L1063,79Z" fill="#9bd1d2" stroke="#9bd1d2" stroke-width="1.51"/><path d="M1378,-90L1047,-118L1063,79Z" fill="#93c3cc" stroke="#93c3cc" stroke-width="1.51"/><path d="M1781,636L1630,407L1452,609Z" fill="#448bb5" stroke="#448bb5" stroke-width="1.51"/><path d="M1742,806L1424,777L1457,905Z" fill="#207bb6" stroke="#207bb6" stroke-width="1.51"/><path d="M310,-71L404,243L557,64Z" fill="#bae4bc" stroke="#bae4bc" stroke-width="1.51"/><path d="M310,-71L212,172L404,243Z" fill="#bee5be" stroke="#bee5be" stroke-width="1.51"/><path d="M340,267L84,405L239,509Z" fill="#a9ddc1" stroke="#a9ddc1" stroke-width="1.51"/><path d="M239,509L84,405L215,568Z" fill="#a3d8c6" stroke="#a3d8c6" stroke-width="1.51"/><path d="M215,568L-1,617L168,778Z" fill="#98cfce" stroke="#98cfce" stroke-width="1.51"/><path d="M944,-276L735,-165L871,-88Z" fill="#abdad5" stroke="#abdad5" stroke-width="1.51"/><path d="M871,-88L735,-165L708,-42Z" fill="#abdccf" stroke="#abdccf" stroke-width="1.51"/><path d="M708,-42L571,-125L557,64Z" fill="#b3e1c6" stroke="#b3e1c6" stroke-width="1.51"/><path d="M735,-165L571,-125L708,-42Z" fill="#b2e1cc" stroke="#b2e1cc" stroke-width="1.51"/><path d="M212,172L84,405L340,267Z" fill="#b5e2bd" stroke="#b5e2bd" stroke-width="1.51"/><path d="M1399,1139L1546,1157L1457,905Z" fill="#106aab" stroke="#106aab" stroke-width="1.51"/><path d="M1110,1224L1546,1157L1399,1139Z" fill="#1966a3" stroke="#1966a3" stroke-width="1.51"/><path d="M1378,-90L1100,-203L1047,-118Z" fill="#97c4d0" stroke="#97c4d0" stroke-width="1.51"/><path d="M1047,-118L944,-276L871,-88Z" fill="#a4d5d7" stroke="#a4d5d7" stroke-width="1.51"/><path d="M1378,-90L1063,79L1365,121Z" fill="#8bbac3" stroke="#8bbac3" stroke-width="1.51"/><path d="M1378,-90L1365,121L1567,-53Z" fill="#88afc1" stroke="#88afc1" stroke-width="1.51"/><path d="M1762,979L1742,806L1457,905Z" fill="#1a6ca9" stroke="#1a6ca9" stroke-width="1.51"/><path d="M168,778L56,934L264,822Z" fill="#8abac3" stroke="#8abac3" stroke-width="1.51"/><path d="M-88,696L56,934L168,778Z" fill="#92c0ca" stroke="#92c0ca" stroke-width="1.51"/><path d="M84,405L-1,617L215,568Z" fill="#a3d7cb" stroke="#a3d7cb" stroke-width="1.51"/><path d="M1567,-53L1365,121L1459,217Z" fill="#80aabb" stroke="#80aabb" stroke-width="1.51"/><path d="M1630,407L1668,83L1459,217Z" fill="#6f9cae" stroke="#6f9cae" stroke-width="1.51"/><path d="M1742,806L1781,636L1452,609Z" fill="#307fb3" stroke="#307fb3" stroke-width="1.51"/><path d="M212,172L16,90L84,405Z" fill="#c0e6c1" stroke="#c0e6c1" stroke-width="1.51"/><path d="M571,-125L310,-71L557,64Z" fill="#bde5c3" stroke="#bde5c3" stroke-width="1.51"/><path d="M480,-272L310,-71L571,-125Z" fill="#c5e9c8" stroke="#c5e9c8" stroke-width="1.51"/><path d="M735,-165L480,-272L571,-125Z" fill="#bce5ce" stroke="#bce5ce" stroke-width="1.51"/><path d="M1100,-203L944,-276L1047,-118Z" fill="#a2d1d9" stroke="#a2d1d9" stroke-width="1.51"/><path d="M1322,-235L944,-276L1100,-203Z" fill="#a0cbd7" stroke="#a0cbd7" stroke-width="1.51"/><path d="M310,-71L196,5L212,172Z" fill="#c9eac4" stroke="#c9eac4" stroke-width="1.51"/><path d="M-187,580L-88,696L-1,617Z" fill="#a2d4d7" stroke="#a2d4d7" stroke-width="1.51"/><path d="M1742,806L1762,979L1781,636Z" fill="#236ba5" stroke="#236ba5" stroke-width="1.51"/><path d="M1546,1157L1762,979L1457,905Z" fill="#0d66a9" stroke="#0d66a9" stroke-width="1.51"/><path d="M404,1184L-33,1200L1110,1224Z" fill="#658da2" stroke="#658da2" stroke-width="1.51"/><path d="M56,934L96,1183L351,992Z" fill="#83a7bb" stroke="#83a7bb" stroke-width="1.51"/><path d="M-33,1200L96,1183L56,934Z" fill="#84a1b8" stroke="#84a1b8" stroke-width="1.51"/><path d="M1781,636L1668,83L1630,407Z" fill="#5b8ea9" stroke="#5b8ea9" stroke-width="1.51"/><path d="M-1,617L-88,696L168,778Z" fill="#99cbd0" stroke="#99cbd0" stroke-width="1.51"/><path d="M-158,425L-1,617L84,405Z" fill="#abdcce" stroke="#abdcce" stroke-width="1.51"/><path d="M1668,83L1567,-53L1459,217Z" fill="#7ea3b6" stroke="#7ea3b6" stroke-width="1.51"/><path d="M1378,-90L1322,-235L1100,-203Z" fill="#95bfcf" stroke="#95bfcf" stroke-width="1.51"/><path d="M1564,-304L1322,-235L1378,-90Z" fill="#93b4cc" stroke="#93b4cc" stroke-width="1.51"/><path d="M-88,696L-69,916L56,934Z" fill="#92bccb" stroke="#92bccb" stroke-width="1.51"/><path d="M1110,1224L1731,1160L1546,1157Z" fill="#115e9f" stroke="#115e9f" stroke-width="1.51"/><path d="M1546,1157L1731,1160L1762,979Z" fill="#0a579a" stroke="#0a579a" stroke-width="1.51"/><path d="M944,-276L480,-272L735,-165Z" fill="#b6e2d4" stroke="#b6e2d4" stroke-width="1.51"/><path d="M41,-247L-1,10L196,5Z" fill="#d6efd0" stroke="#d6efd0" stroke-width="1.51"/><path d="M-1,10L16,90L196,5Z" fill="#d1edca" stroke="#d1edca" stroke-width="1.51"/><path d="M196,5L16,90L212,172Z" fill="#cbebc5" stroke="#cbebc5" stroke-width="1.51"/><path d="M1567,-53L1564,-304L1378,-90Z" fill="#8dadc6" stroke="#8dadc6" stroke-width="1.51"/><path d="M1668,83L1631,-101L1567,-53Z" fill="#83a1b7" stroke="#83a1b7" stroke-width="1.51"/><path d="M1700,-259L1631,-101L1668,83Z" fill="#859eb7" stroke="#859eb7" stroke-width="1.51"/><path d="M-229,289L-158,425L84,405Z" fill="#b9e3cc" stroke="#b9e3cc" stroke-width="1.51"/><path d="M-88,696L-195,877L-69,916Z" fill="#95c0cf" stroke="#95c0cf" stroke-width="1.51"/><path d="M-158,425L-187,580L-1,617Z" fill="#aadad4" stroke="#aadad4" stroke-width="1.51"/><path d="M-257,1056L-33,1200L-69,916Z" fill="#8ba9c4" stroke="#8ba9c4" stroke-width="1.51"/><path d="M-69,916L-33,1200L56,934Z" fill="#89acc3" stroke="#89acc3" stroke-width="1.51"/><path d="M96,1183L-33,1200L404,1184Z" fill="#7d96ab" stroke="#7d96ab" stroke-width="1.51"/><path d="M41,-247L196,5L310,-71Z" fill="#d4eece" stroke="#d4eece" stroke-width="1.51"/><path d="M16,90L-229,289L84,405Z" fill="#c1e7c6" stroke="#c1e7c6" stroke-width="1.51"/><path d="M-346,676L-195,877L-88,696Z" fill="#9fcad6" stroke="#9fcad6" stroke-width="1.51"/><path d="M480,-272L277,-328L310,-71Z" fill="#cfedcf" stroke="#cfedcf" stroke-width="1.51"/><path d="M944,-276L277,-328L480,-272Z" fill="#c4e8d3" stroke="#c4e8d3" stroke-width="1.51"/><path d="M-346,676L-257,1056L-195,877Z" fill="#9abed2" stroke="#9abed2" stroke-width="1.51"/><path d="M-158,425L-346,676L-187,580Z" fill="#addbd9" stroke="#addbd9" stroke-width="1.51"/><path d="M-242,221L-229,289L16,90Z" fill="#ccebcc" stroke="#ccebcc" stroke-width="1.51"/><path d="M1631,-101L1564,-304L1567,-53Z" fill="#8aa6c1" stroke="#8aa6c1" stroke-width="1.51"/><path d="M1322,-235L1564,-304L944,-276Z" fill="#9ac0d3" stroke="#9ac0d3" stroke-width="1.51"/><path d="M944,-276L1564,-304L277,-328Z" fill="#aed9de" stroke="#aed9de" stroke-width="1.51"/><path d="M-346,676L-88,696L-187,580Z" fill="#a5d4dc" stroke="#a5d4dc" stroke-width="1.51"/><path d="M-1,10L-242,221L16,90Z" fill="#d1edcd" stroke="#d1edcd" stroke-width="1.51"/><path d="M-335,-76L-242,221L-1,10Z" fill="#daf1d4" stroke="#daf1d4" stroke-width="1.51"/><path d="M-195,877L-257,1056L-69,916Z" fill="#92b5cb" stroke="#92b5cb" stroke-width="1.51"/><path d="M-346,676L-158,425L-229,289Z" fill="#b6e1d6" stroke="#b6e1d6" stroke-width="1.51"/><path d="M1631,-101L1700,-259L1564,-304Z" fill="#8ca4c0" stroke="#8ca4c0" stroke-width="1.51"/><path d="M1781,636L1700,-259L1668,83Z" fill="#7394a7" stroke="#7394a7" stroke-width="1.51"/><path d="M277,-328L41,-247L310,-71Z" fill="#d8f0d3" stroke="#d8f0d3" stroke-width="1.51"/><path d="M-242,221L-346,676L-229,289Z" fill="#bde5d4" stroke="#bde5d4" stroke-width="1.51"/><path d="M277,-328L-116,-231L41,-247Z" fill="#e2f4db" stroke="#e2f4db" stroke-width="1.51"/><path d="M41,-247L-116,-231L-1,10Z" fill="#dff3d8" stroke="#dff3d8" stroke-width="1.51"/><path d="M-116,-231L-237,-189L-1,10Z" fill="#e1f4db" stroke="#e1f4db" stroke-width="1.51"/><path d="M-242,221L-335,-76L-346,676Z" fill="#cbebd1" stroke="#cbebd1" stroke-width="1.51"/><path d="M-237,-189L-335,-76L-1,10Z" fill="#e1f4db" stroke="#e1f4db" stroke-width="1.51"/></svg>